/* XPM */
static char *d65b3aaf21bc45e5cd725bbb4cd3febcNsxTo0sojInWRwQG[] = {
/* columns rows colors chars-per-pixel */
"32 32 13 1 ",
"  c #96C796",
". c #93C596",
"X c #211F30",
"o c #97C897",
"O c #9FCC98",
"+ c #CC3048",
"@ c #CE8B16",
"# c #F7EC8A",
"$ c #E1CA33",
"% c white",
"& c #6CD9F1",
"* c #BA570B",
"= c #95C696",
/* pixels */
" ...........XX.................o",
"O ..........X+X...............oO",
"OO .........X+X..............oOO",
"OOO ........X@X.............oOOO",
"OOOO .......X@XXXXXXX......oOOOO",
"OOOOO ....XX##$$$$$##XX...oOOOOO",
"OOOOOO ..X##$$$$$$$$$##X.oOOOOOO",
"OOOOOOO X#$$$$$$$$$$$$$#XOOOOOOO",
"OOOOOOOX#$$$$XXXXXXXXXX$#XOOOOOO",
"OOOOOOOX$$$$XXXXXXXXXXXX$#XOOOOO",
"OOOOOOX@$$$XXXXXXXXXXXXXX$XOOOOO",
"OOOOOOX@$$$XX%%XXXXXXX%%X$XOOOOO",
"OOOOOOX@$$$XX&&XXXXXXX&&X$XOOOOO",
"OOOOOOX@$$$XX%%XXXXXXX%%X$XOOOOO",
"OOOOOOX@$$$XXXXXXXXXXXXXX$XOOOOO",
"OOOOOOX@$$$$XXXXXXXXXXXX$$XOOOOO",
"OOOOOOX@$$$$$XXXXXXXXXX$$XOOOOOO",
"OOOOOOOX@$$$$$$$$$$$$$$$@XOOOOOO",
"OOOOOOOOX@@$$$$$$$$$$$$@XOOOOOOO",
"OOOOOOOO.XX@@$$$@@**$@XXOOOOOOOO",
"OOOOOOOO..X$$$$@$$$$*$X.OOOOOOOO",
"OOOOOOOO.X$$$$@$$$$$*$$XOOOOOOOO",
"OOOOOOOOX$$$$$@$$$$$*$$XXOOOOOOO",
"OOOOOOOX$$$$$$@$$$$$*$$X@XOOOOOO",
"OOOOOOOX$$@X$$@$$$$$*$$X@XOOOOOO",
"OOOOOO=X@@X$$$@$$$$$*$$$XXOOOOOO",
"OOOOO=..XX@$$$XXXXXXX$$$X. OOOOO",
"OOOO=....X@$$@X....X@$$@X.. OOOO",
"OOO=.....X@$$X.....X@@@X.... OOO",
"OO=......X@$$X......XXX...... OO",
"O=.......X@@X................. O",
"=.........XX................... "
};
