/* XPM */
static char *ef97c1a718e04981ccf4665b26909eb9cgcynpitl1IoSMId[] = {
/* columns rows colors chars-per-pixel */
"32 32 84 1 ",
"  c #96C796",
". c #93C596",
"X c #97C897",
"o c #9FCC98",
"O c #6B8A77",
"+ c #39415D",
"@ c #292A58",
"# c #27254A",
"$ c #516363",
"% c #2B2E62",
"& c #3D5995",
"* c #4974B2",
"= c #282851",
"- c #2C3068",
"; c #3C588D",
": c #4975B2",
"> c #4976B1",
", c #303872",
"< c #3C5393",
"1 c #364582",
"2 c #364684",
"3 c #3D5A94",
"4 c #4977B1",
"5 c #414C5E",
"6 c #41609F",
"7 c #262447",
"8 c #2A2D5F",
"9 c #799E82",
"0 c #566664",
"q c #384B89",
"w c #2F366F",
"e c #252241",
"r c #292955",
"t c #36497C",
"y c #502743",
"u c #6C2B44",
"i c #5B2943",
"p c #3F2542",
"a c #384B86",
"s c #6E8875",
"d c #4467A6",
"f c #7B394D",
"g c #96515E",
"h c #76344A",
"j c #8F4B5A",
"k c #8C4858",
"l c #412642",
"z c #323E79",
"x c #854254",
"c c #7D3A4E",
"v c #3B425D",
"b c #82A383",
"n c #384C85",
"m c #4B2F48",
"M c #302341",
"N c #362442",
"B c #52354D",
"V c #482C46",
"C c #4C488A",
"Z c #5A58A0",
"A c #6A67A5",
"S c #837CAD",
"D c #2C2852",
"F c #696DB1",
"G c #8485BA",
"H c #ADA9C7",
"J c #312B5D",
"K c #28274F",
"L c #433986",
"P c #524E97",
"I c #5D579B",
"U c #6D66A0",
"Y c #49418D",
"T c #612A44",
"R c #444E5F",
"E c #8BB18A",
"W c #84AC88",
"Q c #95C696",
"! c #41639E",
"~ c #5D3149",
"^ c #6A374D",
"/ c #313A71",
"( c #678474",
") c #373C4F",
/* pixels */
" ..............................X",
"o ............................Xo",
"oo .......OO+@@#@@@$O........Xoo",
"ooo ....O+%@&**=&**-@@$.....Xooo",
"oooo ..O;:>=,<<=1<2=3*45...Xoooo",
"ooooo +;6<<-#--78--@1<<>@9Xooooo",
"ooooo088q<w7eeeeeeee8q<wr=oooooo",
"ooooo@*t8-7eyuiepuuee8-r:asooooo",
"oooo0&<d=epefgheyjklpee&<d=ooooo",
"oooo@-zw7puexgceygglyie8zw-soooo",
"oooov@=7efuexgceygglyfle=r@boooo",
"oooo@4n#yjcexgceygglyghe%4nsoooo",
"oooo@<d=ygcexgceygglygce&<zsoooo",
"oooo@<<=emMeNBMeemVeemMe1<zsoooo",
"oooo@--7CZZZZZZZZZASSAZD8--soooo",
"oooov@@eZFFFFFFFFFGHHGFJK@@boooo",
"oooo@**=LPPPPPPPPPIUUIYJ&*asoooo",
"oooo@<<=DJJJJJJJJJJJJJJe1<zsoooo",
"oooo@zz=puieTuiepuuNpuie,zwsoooo",
"ooooR==eyjhefgheyjklyjhe#==Eoooo",
"oooo@44#ygcexgceygglygce;4nsoooo",
"oooo@<<=ygcexgceygglygce1<zsoooo",
"oooo@<<=emMeNBMeemVeemMe1<zsoooo",
"oooo@zz=CZZZZZZZZZASSAZD,zwsoooo",
"ooooR==eZFFFFFFFFFGHHGFJ#==Eoooo",
"oooo@44#LPPPPPPPPPIUUIYJ;4nsoooo",
"oooo@<<=DJJJJJJJJJJJJJJe1<zsoooo",
"oooo5==epuieTuiepuuNpuie#==Woooo",
"oooQ@!&#Nj~e^g~eNjkMNj~e/4,( ooo",
"ooQ)#==eeeeeeeeeeeeeeeee#==e9 oo",
"oQ............................ o",
"Q.............................. "
};
