/* XPM */
static char *_4727f6b8b224065f02213840ebacb6dN3sOMWLffn4QIAKm[] = {
/* columns rows colors chars-per-pixel */
"32 32 11 1 ",
"  c #96C796",
". c #93C596",
"X c #97C897",
"o c #9FCC98",
"O c #252241",
"+ c #BF795B",
"@ c #F1E583",
"# c #CD9B6B",
"$ c #843F4C",
"% c #95C696",
"& c #9B6751",
/* pixels */
" ..............................X",
"o ............................Xo",
"oo ..........................Xoo",
"ooo ........................Xooo",
"oooo ......................Xoooo",
"ooooo ....OOOOOOOOOOOO....Xooooo",
"oooooo ..O+++@@#####++O..Xoooooo",
"ooooooo ..OOOOOOOOOOOO..Xooooooo",
"oooooooo ooO$$$$$$$$Ooo%oooooooo",
"oooooooo. ooO$$$$$$Ooo%.oooooooo",
"oooooooo.. oO&&&$$$Oo%..oooooooo",
"oooooooo..OO&#&&&$$$OO..oooooooo",
"oooooooo.O&##&&&&$$$$$O.oooooooo",
"ooooooooO&&&&&&&&&$$$$$Ooooooooo",
"oooooooO&&&&&&&&&&$$$$$$Oooooooo",
"oooooooO##@@@#@###++++++Oooooooo",
"oooooooO##@@@#@###++++++Oooooooo",
"oooooooO##@@@#@###++++++Oooooooo",
"oooooooO&&&&&&&&&&$$$$$$Oooooooo",
"oooooooO&#&&&&@&&&$+$$$$Oooooooo",
"ooooooooO#@&&#@#&&+++$$Ooooooooo",
"ooooooooO#&&&&@&&&$+$$$Ooooooooo",
"oooooooo.O&&&&&&&$$$$$O.oooooooo",
"ooooooooXoO&&&&&$$$$$Oo oooooooo",
"ooooooo%...O$$$$$$$$O... ooooooo",
"oooooo%.....O$$$$$$O..... oooooo",
"ooooo%.......OOOOOO....... ooooo",
"oooo%...................... oooo",
"ooo%........................ ooo",
"oo%.......................... oo",
"o%............................ o",
"%.............................. "
};
