/* XPM */
static char *_033472462194cf9ba6ac87d76cfb8728wYCT0pZfmIME0BI[] = {
/* columns rows colors chars-per-pixel */
"32 32 72 1 ",
"  c #96C796",
". c #93C596",
"X c #97C897",
"o c #9FCC98",
"O c #6B8A77",
"+ c #39415D",
"@ c #292A58",
"# c #27254A",
"$ c #516363",
"% c #2B2E62",
"& c #3D5995",
"* c #4974B2",
"= c #282851",
"- c #2C3068",
"; c #3C588D",
": c #4975B2",
"> c #4976B1",
", c #303872",
"< c #3C5393",
"1 c #364582",
"2 c #364684",
"3 c #3D5A94",
"4 c #4977B1",
"5 c #414C5E",
"6 c #41609F",
"7 c #262447",
"8 c #2A2D5F",
"9 c #799E82",
"0 c #566664",
"q c #384B89",
"w c #2F366F",
"e c #252241",
"r c #292955",
"t c #36497C",
"y c #384B86",
"u c #6E8875",
"i c #4467A6",
"p c #3F2542",
"a c #323E79",
"s c #4E334B",
"d c #6C2B44",
"f c #412642",
"g c #3B425D",
"h c #96515E",
"j c #82A383",
"k c #384C85",
"l c #693E52",
"z c #402D48",
"x c #52354D",
"c c #645E92",
"v c #837CAD",
"b c #554E85",
"n c #5A58A0",
"m c #696DB1",
"M c #524E97",
"N c #312B5D",
"B c #28274F",
"V c #433986",
"C c #49418D",
"Z c #2A264C",
"A c #2C2852",
"S c #362442",
"D c #444E5F",
"F c #8BB18A",
"G c #302341",
"H c #84AC88",
"J c #95C696",
"K c #41639E",
"L c #522843",
"P c #313A71",
"I c #678474",
"U c #373C4F",
/* pixels */
" ..............................X",
"o ............................Xo",
"oo .......OO+@@#@@@$O........Xoo",
"ooo ....O+%@&**=&**-@@$.....Xooo",
"oooo ..O;:>=,<<=1<2=3*45...Xoooo",
"ooooo +;6<<-#--78--@1<<>@9Xooooo",
"ooooo088q<w7eeeeeeee8q<wr=oooooo",
"ooooo@*t8-7eeeeeeeeee8-r:yuooooo",
"oooo0&<i=epeeeeeeeeeeee&<i=ooooo",
"oooo@-aw7sdfeeeeeeeeeee8aw-uoooo",
"oooog@=7ehdffeeeeeeeeeee=r@joooo",
"oooo@4k#lhdffeeeeeeeeeee%4kuoooo",
"oooo@<i=lhdffeeeeeeeeeee&<auoooo",
"oooo@<<=zxfffeeeeeeeeeee1<auoooo",
"oooo@--7cvbefeeeeeeeeeee8--uoooo",
"oooog@@enmMNfeeeeeeeeeeeB@@joooo",
"oooo@**=VMCZfeeeeeeeeeee&*yuoooo",
"oooo@<<=ANZSfeeeeeeeeeee1<auoooo",
"oooo@aa=lhdffeeeeeeeeeee,awuoooo",
"ooooD==elhdffeeeeeeeeeee#==Foooo",
"oooo@44#lhdffeeeeeeeeeee;4kuoooo",
"oooo@<<=lhdffeeeeeeeeeee1<auoooo",
"oooo@<<=zxfffeeeeeeeeeee1<auoooo",
"oooo@aa=cvbefeeeeeeeeeee,awuoooo",
"ooooD==enmMNfeeeeeeeeeee#==Foooo",
"oooo@44#VMCZfeeeeeeeeeee;4kuoooo",
"oooo@<<=ANZSfeeeeeeeeeee1<auoooo",
"oooo5==elhdfGeeeeeeeeeee#==Hoooo",
"oooJ@K&#lhLeeeeeeeeeeeeeP4,I ooo",
"ooJU#==eeeeeeeeeeeeeeeee#==e9 oo",
"oJ............................ o",
"J.............................. "
};
