/* XPM */
static char *_dbe1f2e9d324ae7a614cc88b4503d21mL2fookuXEvrMUef[] = {
/* columns rows colors chars-per-pixel */
"32 32 11 1 ",
"  c #96C796",
". c #93C596",
"X c #97C897",
"o c #9FCC98",
"O c #211F30",
"+ c #E68D41",
"@ c #D2612F",
"# c #B22E20",
"$ c #F2BC7E",
"% c white",
"& c #95C696",
/* pixels */
" ..............................X",
"o ......OOO............OOO....Xo",
"oo .....O++O....OO....O@#O...Xoo",
"ooo ....O@@+O.OOO@O..O@@#O..Xooo",
"oooo ...O@$#+OO@O@@OOO@#$O.Xoooo",
"ooooo ..O@$$#+@@@@@++@@#$OXooooo",
"oooooo .O@$$#@@@@@@@@++#$Ooooooo",
"ooooooo O+$$@@@@@@@@@@@+#Ooooooo",
"oooooooO+@@@@@@@@@@@@@@@+Ooooooo",
"oooooooO@@@@@@@@@@@@@@@@@+Oooooo",
"ooooooO#@@@@@###@@@@@@@###Oooooo",
"ooooooO#@@@@#%%#@@@@@@@#%%Oooooo",
"ooooooO#@@@@#%%#@@OOOOOO%%Oooooo",
"ooooooO#@@@@###@@@@@@OOO##Oooooo",
"ooooooO#@@$$$@@@@@@@@@@O$$Oooooo",
"ooooooO#@$$$$$@@@@@@@@@O$$Oooooo",
"ooooooO#@$$$$$$$$$$$$$O$$Ooooooo",
"oooooooO#$$$$$$$$$$###$$Oooooooo",
"ooooooooO##$$$$$$$$$$$$#Oooooooo",
"oooooooo.OO##@@$$$$$@#OOoooooooo",
"oooooooo..O@@@$$$$$$$@O.oooooooo",
"oooooooo.O@@@@$$$$$$$@@Ooooooooo",
"ooooooooO@@@@@$$$$$$$@@OOooooooo",
"oooooooO@@@@@@$$$$$$$@@O#Ooooooo",
"oooooooO@@#O@@$$$$$$$@@O#Ooooooo",
"oooooo&O##O@@@$$$$$$$@@@OOoooooo",
"ooooo&..OO#@@@OOOOOOO@@@O. ooooo",
"oooo&....O#@@#O....O#@@#O.. oooo",
"ooo&.....O#@@O.....O###O.... ooo",
"oo&......O#@@O......OOO...... oo",
"o&.......O##O................. o",
"&.........OO................... "
};
