/* XPM */
static char *_0ac33b97ede4987af853bc2e9db7cddzR6F09qZClFfaLbf[] = {
/* columns rows colors chars-per-pixel */
"32 32 15 1 ",
"  c #96C796",
". c #93C596",
"X c #97C897",
"o c #9FCC98",
"O c #13362F",
"+ c #4AB734",
"@ c #40A23D",
"# c #246544",
"$ c #368C47",
"% c #95C696",
"& c #1B473E",
"* c #779972",
"= c #6E9470",
"- c #277345",
"; c #709470",
/* pixels */
" ..............................X",
"o ............................Xo",
"oo ..........................Xoo",
"ooo .....O..O...............Xooo",
"oooo ...O+OO+O.............Xoooo",
"ooooo ..O@+O@+O...O.......Xooooo",
"oooooo ..O@O@@OO.O+O.....Xoooooo",
"ooooooo OOO#@#O+O+@O.O..Xooooooo",
"oooooooO$@+#@#+@#@@#O+O%OOoooooo",
"ooooooooOO$$#&@#$$##+@OO@+Oooooo",
"oooooo**==O#@+#@$#+#@$O@$Ooooooo",
"ooooooo*OOO$$@&-#+@#$#@$Oooooooo",
"oooooooO@+###$@&@#@##@+Ooooooooo",
"ooooooooO@+@#&&@#&&&#$@@Oooooooo",
"oooooooO+@##&@+#&&@@+#OOoooooooo",
"ooooooO@$#@+@$#+#&#$@@#OOooooooo",
"oooooooOO@$#$#+@@#+&##@@@Ooooooo",
"oooooooO#$##&&@##+@#@@+$Oooooooo",
"ooooooO$$$$@#+#@+@@@#&#Ooooooooo",
"ooooooOO--##@@O$#@$#+#@$Oooooooo",
"oooooO$@##$#$O*OO$#@@#$--Ooooooo",
"ooooooO$$$-#O****OO$#$#OOooooooo",
"oooooO$$#--O******O-O$$Ooooooooo",
"oooooO--OO-O***o***OO-$$Oooooooo",
"ooooooOO==O==....====O-$Oooooooo",
"oooooo;====........===OO. oooooo",
"ooooo%.=.............===.. ooooo",
"oooo%...................... oooo",
"ooo%........................ ooo",
"oo%.......................... oo",
"o%............................ o",
"%.............................. "
};
