/* XPM */
static char *_aae582a7c3d4371e408b49e42da4d5afGePEqGm1QhFVgVx[] = {
/* columns rows colors chars-per-pixel */
"32 32 173 2 ",
"   c #96C796",
".  c #93C596",
"X  c #97C897",
"o  c #9FCC98",
"O  c #659171",
"+  c #3F7749",
"@  c #6C9672",
"#  c #348332",
"$  c #256135",
"%  c #95C696",
"&  c #477058",
"*  c #4B7259",
"=  c #41794A",
"-  c #307C35",
";  c #2B6F34",
":  c #2A6F3B",
">  c #7EA87F",
",  c #76A47D",
"<  c #74A37D",
"1  c #388D37",
"2  c #2F7B40",
"3  c #42A73B",
"4  c #34873A",
"5  c #3F744B",
"6  c #205530",
"7  c #3A9543",
"8  c #4B7A59",
"9  c #388E3C",
"0  c #487B57",
"q  c #86B388",
"w  c #3D6350",
"e  c #338441",
"r  c #2D7844",
"t  c #307D42",
"y  c #33833C",
"u  c #39933F",
"i  c #2D763D",
"p  c #4D7D57",
"a  c #397545",
"s  c #34863B",
"d  c #477858",
"f  c #779F79",
"g  c #6E9470",
"h  c #2D5844",
"j  c #246340",
"k  c #276B44",
"l  c #348643",
"z  c #2F7D43",
"x  c #318241",
"c  c #27683D",
"v  c #358A40",
"b  c #266743",
"n  c #3E9D3C",
"m  c #366C40",
"M  c #286C3F",
"N  c #389140",
"B  c #378F3E",
"V  c #2D7940",
"C  c #296C41",
"Z  c #2C7A46",
"A  c #297345",
"S  c #2B7545",
"D  c #318142",
"F  c #3E9D3F",
"G  c #307D3A",
"H  c #466F58",
"J  c #3D6E4E",
"K  c #1E5336",
"L  c #378E43",
"P  c #38913D",
"I  c #296E44",
"U  c #399341",
"Y  c #338647",
"T  c #205741",
"R  c #256844",
"E  c #215C41",
"W  c #2D7A46",
"Q  c #2B7442",
"!  c #368B42",
"~  c #368C40",
"^  c #378E41",
"/  c #246035",
"(  c #88B487",
")  c #24643D",
"_  c #328346",
"`  c #307E3F",
"'  c #3C983D",
"]  c #3D9A3D",
"[  c #328138",
"{  c #2B7743",
"}  c #215C42",
"|  c #1B473E",
" . c #226042",
".. c #1F5340",
"X. c #225E43",
"o. c #389145",
"O. c #318243",
"+. c #388F3E",
"@. c #23633E",
"#. c #497659",
"$. c #23613D",
"%. c #21613F",
"&. c #26673E",
"*. c #368B44",
"=. c #39654A",
"-. c #194433",
";. c #296D3F",
":. c #348844",
">. c #378C3C",
",. c #348742",
"<. c #2A6D3E",
"1. c #286E41",
"2. c #184534",
"3. c #719570",
"4. c #39684D",
"5. c #5F8466",
"6. c #4A6E56",
"7. c #4D7258",
"8. c #3B973D",
"9. c #2A6F41",
"0. c #2E7A43",
"q. c #34873E",
"w. c #3D9B3B",
"e. c #3A953E",
"r. c #296F41",
"t. c #346742",
"y. c #587D61",
"u. c #779972",
"i. c #99C492",
"p. c #91BA8A",
"a. c #316145",
"s. c #2E773E",
"d. c #338540",
"f. c #27693B",
"g. c #296C3B",
"h. c #318140",
"j. c #286A3D",
"k. c #6F9B77",
"l. c #5C8668",
"z. c #307D41",
"x. c #27673E",
"c. c #235C37",
"v. c #2F6543",
"b. c #2C733F",
"n. c #4F7157",
"m. c #318346",
"M. c #2D7845",
"N. c #1D5238",
"B. c #36674D",
"V. c #266A40",
"C. c #235E36",
"Z. c #3D674B",
"A. c #305D44",
"S. c #2A4D3F",
"D. c #277345",
"F. c #608C6D",
"G. c #164033",
"H. c #678967",
"J. c #1F5B3C",
"K. c #21593E",
"L. c #256840",
"P. c #5F8162",
"I. c #80A57B",
"U. c #618566",
"Y. c #447358",
"T. c #77A57E",
"R. c #3A644B",
"E. c #8FB788",
"W. c #96C08F",
"Q. c #87B387",
"!. c #84B187",
"~. c #85AB80",
"^. c #8AB98D",
/* pixels */
"  . . . . . . . . . . . . . . . . . . . . . . . . . . . . . . X ",
"o   . . . . . . . . . . . . . . . . . . . . . . . . . . . . X o ",
"o o   . . . . . . . . . . . . . . . . . . . . . . . . . . X o o ",
"o o o   . . . . . . . . . . . . . . . . . . . . . . . . X o o o ",
"o o o o   . . . . . . . . . . . . . . . . . . . . . . X o o o o ",
"o o o o o   . . . . . . . . . . . . . . . . . . . . X o o o o o ",
"o o o o o o   . . . . . . . . . . . . . . . . . . X o o o o o o ",
"o o o o o o o   . . . . . . . . O + . . . . . . X o o o o o o o ",
"o o o o o o o o   o o o o o o @ # $ o o o o o % o o o o o o o o ",
"o o o o o o o o . & * = @ o o - ; : > o o @ , . o o o o o o o o ",
"o o o o o o o o < 1 2 3 4 5 = 6 7 8 o * = 9 0 . o o o o o o o o ",
"o o o o o o o o q w e r t r y u i p a s r d . . o o o o o o o o ",
"o o o o o o o o f g h j k l z z x c v b n 0 . . o o o o o o o o ",
"o o o o o o o o O m M N B V C Z A S D F G # H < o o o o o o o o ",
"o o o o o o o J K L P I C U Y T R E W Q ! ~ ^ / 8 ( o o o o o o ",
"o o o o o o @ ) _ ` ' ] [ v { } |  ...X.o.O.x +.@.#.o o o o o o ",
"o o o o o o $.%.&.*.=.-.;.P :.>.,.<.x +.B r =.1.2.3.o o o o o o ",
"o o o o o o > 4.5.6.7.6 8.9.v 0.q.w.e.r.r B t.y.u.i.o o o o o o ",
"o o o o o o p.u.g g a._ s.F z y d.f.g.h.+.,.j.k.o o o o o o o o ",
"o o o o o o o o . l.) z._ x.c.v.b.u n.: m.M.N.. o o o o o o o o ",
"o o o o o o o o . B.V.m.$.N.n.C.M.x.Z.A.S.@.D.F.o o o o o o o o ",
"o o o o o o o o . H D.G.N.H.u.J.K.x.L.P.I.U.6.Y.o o o o o o o o ",
"o o o o o o o o . T.R.u.H.u.I.P.J.N.n.E.o W.Q.!.o o o o o o o o ",
"o o o o o o o o X o ~.E.E.o o I.P.R.~.o o o o   o o o o o o o o ",
"o o o o o o o % . . . . . . . . ^.f . . . . . .   o o o o o o o ",
"o o o o o o % . . . . . . . . . . . . . . . . . .   o o o o o o ",
"o o o o o % . . . . . . . . . . . . . . . . . . . .   o o o o o ",
"o o o o % . . . . . . . . . . . . . . . . . . . . . .   o o o o ",
"o o o % . . . . . . . . . . . . . . . . . . . . . . . .   o o o ",
"o o % . . . . . . . . . . . . . . . . . . . . . . . . . .   o o ",
"o % . . . . . . . . . . . . . . . . . . . . . . . . . . . .   o ",
"% . . . . . . . . . . . . . . . . . . . . . . . . . . . . . .   "
};
