/* XPM */
static char *_0b051e810d44a8290e7862f1e482204reriHTfUleCpw3ga[] = {
/* columns rows colors chars-per-pixel */
"32 32 15 1 ",
"  c #96C796",
". c #93C596",
"X c #97C897",
"o c #9FCC98",
"O c #13362F",
"+ c #95C696",
"@ c #4AB734",
"# c #40A23D",
"$ c #368C47",
"% c #246544",
"& c #1B473E",
"* c #6E9470",
"= c #277345",
"- c #779972",
"; c #719671",
/* pixels */
" ..............................X",
"o ............................Xo",
"oo ..........................Xoo",
"ooo ........................Xooo",
"oooo ......................Xoooo",
"ooooo ....................Xooooo",
"oooooo ..................Xoooooo",
"ooooooo ................Xooooooo",
"oooooooo oooooooooooOoo+oooooooo",
"oooooooo. oooooooOoO@O+.oooooooo",
"oooooooo.. oooooO@O#O+..oooooooo",
"oooooooo... ooooO@#$O...oooooooo",
"oooooooo....OooOO#$%O...oooooooo",
"oooooooo...O@OO@O$%@#O..oooooooo",
"oooooooo..O$#@O##&#$O...oooooooo",
"oooooooo..OO%#%$&&%%O...oooooooo",
"oooooooo.O#@%&#&&#%@#O..oooooooo",
"ooooooooO$$%%@%@%&#$O...oooooooo",
"oooooooo.OO%##O#%@&%O...oooooooo",
"oooooooo**O=$O-O##%#$O..oooooooo",
"oooooooo.**O=O-O$O$%O...oooooooo",
"oooooooo..;-O---OO=O=O..oooooooo",
"oooooooo.Xo--ooo--O-O- .oooooooo",
"ooooooooXoooooooo----oo oooooooo",
"ooooooo+................ ooooooo",
"oooooo+.................. oooooo",
"ooooo+.................... ooooo",
"oooo+...................... oooo",
"ooo+........................ ooo",
"oo+.......................... oo",
"o+............................ o",
"+.............................. "
};
